<svg xmlns="http://www.w3.org/2000/svg" viewBox="0 22.75 262.75 115.45001220703125" data-asc="1.303" width="262.75" height="115.45001220703125">
       <defs/>
       <g>
              <g fill="#FFFFFF">
                     <g transform="translate(0, 0)">
                            <path d="M11.65 65.40Q9.80 65.40 9.00 64.57Q8.20 63.75 8.20 61.45Q8.20 59.90 8.53 57.47Q8.85 55.05 9.60 50.80Q10.90 42.95 11.65 37.20Q12.10 33.60 12.10 31.20Q12.10 28.95 10.45 28.95Q9.15 28.95 7.33 30.27Q5.50 31.60 3.30 34.50Q2.60 35.45 1.75 35.45Q1.05 35.45 0.53 34.77Q0 34.10 0 33.25Q0 32.45 0.33 31.62Q0.65 30.80 1.40 29.75Q3.80 26.40 6.75 24.57Q9.70 22.75 12.65 22.75Q15.40 22.75 16.88 24.50Q18.35 26.25 18.35 29.60Q18.35 30.95 18.10 32.77Q17.85 34.60 17.65 35.75Q17.45 36.90 17.35 37.35Q20.20 29.20 23.75 25.97Q27.30 22.75 31.55 22.75Q34.80 22.75 36.67 25.05Q38.55 27.35 38.55 31.55Q38.55 33.20 38.10 35.65Q40.60 28.75 43.95 25.75Q47.30 22.75 51.65 22.75Q55.15 22.75 57.02 25.00Q58.90 27.25 58.90 31.30Q58.90 33.50 58.25 36.65L55.20 50.95Q54.70 53.45 54.70 55.25Q54.70 57.35 55.67 58.40Q56.65 59.45 58.40 59.45Q60.05 59.45 61.63 58.35Q63.20 57.25 65.35 54.70Q65.95 54.00 66.70 54.00Q67.35 54.00 67.72 54.60Q68.10 55.20 68.10 56.25Q68.10 58.20 67.15 59.35Q64.55 62.50 62 63.95Q59.45 65.40 56.65 65.40Q52.40 65.40 50 62.87Q47.60 60.35 47.60 56.10Q47.60 53.15 48.80 47.55L50.80 38.40Q50.90 37.95 51.15 36.80Q51.40 35.65 51.55 34.62Q51.70 33.60 51.70 32.60Q51.70 30.85 51.02 29.97Q50.35 29.10 49.10 29.10Q46.75 29.10 44.17 32.12Q41.60 35.15 39.27 42.15Q36.95 49.15 35.50 60.35Q35.15 63.35 34.27 64.37Q33.40 65.40 31.45 65.40Q29.75 65.40 28.98 64.60Q28.20 63.80 28.20 61.60Q28.20 59.55 28.75 56.22Q29.30 52.90 30.15 48.40Q32.45 36.30 32.45 32.80Q32.45 30.90 31.73 30.00Q31.00 29.10 29.55 29.10Q27.10 29.10 24.50 31.87Q21.90 34.65 19.43 41.72Q16.95 48.80 15.30 60.85Q14.95 63.40 14.28 64.40Q13.60 65.40 11.65 65.40ZM76.65 65.40Q73.20 65.40 70.42 63.70Q67.65 62.00 66.05 58.77Q64.45 55.55 64.45 51.15Q64.45 43.55 67.70 37.07Q70.95 30.60 77.30 26.67Q83.65 22.75 92.55 22.75Q94.85 22.75 97.47 23.10Q100.10 23.45 102.25 24.15Q103.65 24.55 103.65 26.15Q103.65 27.45 102.68 28.60Q101.70 29.75 100.40 29.75Q100 29.75 99.80 29.70Q97.20 29.10 95.35 28.82Q93.50 28.55 91.45 28.55Q85.10 28.55 80.65 31.62Q76.20 34.70 74 39.75Q71.80 44.80 71.80 50.65Q71.80 54.90 73.47 57.22Q75.15 59.55 77.85 59.55Q80.90 59.55 83.20 57.05Q85.50 54.55 87.40 48.95Q89.30 43.35 91.15 33.75Q91.45 32.35 92.35 31.85Q93.25 31.35 94.75 31.35Q98.30 31.35 98.30 33.65Q98.30 34.05 98.15 34.65Q96.85 39.50 95.78 45.37Q94.70 51.25 94.70 54.30Q94.70 57.00 95.50 58.22Q96.30 59.45 97.95 59.45Q99.55 59.45 101 58.37Q102.45 57.30 104.65 54.70Q105.25 54.00 106 54.00Q106.65 54.00 107.03 54.60Q107.40 55.20 107.40 56.25Q107.40 58.20 106.45 59.35Q104 62.30 101.65 63.85Q99.30 65.40 95.90 65.40Q92.40 65.40 90.25 63.37Q88.10 61.35 87.55 57.65Q83.85 65.40 76.65 65.40ZM152.85 54.00Q153.50 54.00 153.88 54.60Q154.25 55.20 154.25 56.25Q154.25 58.20 153.30 59.35Q150.90 62.25 148.45 63.82Q146 65.40 142.65 65.40Q138.95 65.40 136.60 63.22Q134.25 61.05 132.20 56.45Q130.70 53.15 129.72 51.52Q128.75 49.90 127.80 49.22Q126.85 48.55 125.40 48.40L124.85 52.10Q123.80 59.25 120.78 62.40Q117.75 65.55 112.45 65.55Q109 65.55 106.33 63.87Q103.65 62.20 102.60 59.60Q102.25 58.70 102.25 57.65Q102.25 56.15 102.95 55.05Q103.65 53.95 104.75 53.95Q105.40 53.95 105.85 54.27Q106.30 54.60 106.70 55.40Q108.25 58.30 109.42 59.45Q110.60 60.60 112.35 60.60Q114.35 60.60 115.78 58.77Q117.20 56.95 117.80 53.15L118.50 48.40L117.70 48.40Q116.55 48.40 115.90 47.75Q115.25 47.10 115.25 45.95Q115.25 44.65 115.93 43.87Q116.60 43.10 117.60 43.10L119.25 43.10Q119.60 40.65 119.75 39.70L121.30 28.45Q120 28.30 118.85 28.30Q114.60 28.30 112.40 29.77Q110.20 31.25 110.20 34.00Q110.20 35.25 110.48 36.02Q110.75 36.80 111.20 37.75Q111.40 38.15 111.40 38.65Q111.40 39.75 110.38 40.57Q109.35 41.40 108.10 41.40Q106.50 41.40 105.75 40.00Q104.25 37.35 104.25 34.30Q104.25 31.15 105.98 28.55Q107.70 25.95 111.20 24.37Q114.70 22.80 119.85 22.80Q122.10 22.80 123.98 23.05Q125.85 23.30 128.10 24.00Q130.55 24.75 130.55 26.80Q130.55 29.55 128.20 29.55L126.25 43.00Q132.10 42.40 135.78 37.97Q139.45 33.55 141.90 25.95Q142.35 24.55 143.43 23.80Q144.50 23.05 146.15 23.05Q147.55 23.05 148.32 23.67Q149.10 24.30 149.10 25.45Q149.10 25.80 148.90 26.60Q146.40 34.85 141.75 39.70Q137.10 44.55 131.60 46.15Q133.50 46.60 134.72 47.50Q135.95 48.40 136.80 49.72Q137.65 51.05 138.75 53.40Q140.30 56.70 141.65 58.07Q143 59.45 144.80 59.45Q146.40 59.45 147.85 58.37Q149.30 57.30 151.50 54.70Q152.10 54.00 152.85 54.00ZM172.50 23.05Q173.80 23.05 174.70 23.67Q175.60 24.30 175.60 25.20Q175.60 26.80 174.60 27.77Q173.60 28.75 171.75 28.75Q168.85 28.75 167.35 28.80Q167.25 29.40 166.45 34.20Q165.55 39.55 165.35 40.75L164.30 47.30Q163.20 54.65 162.55 59.60Q163.60 59.55 165.40 59.55Q168.05 59.55 169 60.25Q169.95 60.95 169.95 62.35Q169.95 63.65 168.93 64.55Q167.90 65.45 166.05 65.45Q164.80 65.45 162.10 65.35Q159.60 65.25 158.80 65.25Q155.65 65.25 151.90 65.80Q150.25 66.05 149.55 66.05Q148.45 66.05 147.70 65.45Q146.95 64.85 146.95 63.70Q146.95 61.90 148.55 60.90Q150.15 59.90 153.05 59.85L155.40 59.80L155.55 58.70Q156.75 50.70 157.30 47.40L158.40 40.85Q159.40 35.05 160.20 28.90L156 28.95Q154.20 28.95 153.53 28.37Q152.85 27.80 152.85 26.75Q152.85 23.35 157.75 23.10Q160.05 23.00 163.35 23.00L172.50 23.05ZM184.15 65.40Q182.30 65.40 181.50 64.57Q180.70 63.75 180.70 61.45Q180.70 59.90 181 57.70Q181.30 55.50 182.05 51.05Q182.15 50.45 182.85 46.17Q183.55 41.90 184.10 37.20Q184.60 33.20 184.60 31.20Q184.60 28.95 182.95 28.95Q181.70 28.95 179.83 30.27Q177.95 31.60 175.80 34.50Q175.10 35.45 174.25 35.45Q173.55 35.45 173.03 34.77Q172.50 34.10 172.50 33.25Q172.50 32.40 172.80 31.62Q173.10 30.85 173.90 29.75Q176.35 26.40 179.35 24.57Q182.35 22.75 185.65 22.75Q188.40 22.75 189.78 24.45Q191.15 26.15 191.15 29.40Q191.15 32.30 190.35 37.80Q192.85 30.40 196.70 26.57Q200.55 22.75 205.75 22.75Q209.85 22.75 211.93 25.07Q214 27.40 214 31.30Q214 33.50 213.35 36.65L210.30 50.95Q209.80 53.45 209.80 55.25Q209.80 57.35 210.78 58.40Q211.75 59.45 213.50 59.45Q215.15 59.45 216.73 58.35Q218.30 57.25 220.45 54.70Q221.05 54.00 221.80 54.00Q222.45 54.00 222.83 54.60Q223.20 55.20 223.20 56.25Q223.20 58.20 222.25 59.35Q219.65 62.50 217.10 63.95Q214.55 65.40 211.75 65.40Q207.50 65.40 205.10 62.87Q202.70 60.35 202.70 56.10Q202.70 54.45 202.98 52.50Q203.25 50.55 203.90 47.55L205.90 38.40Q206 37.95 206.25 36.80Q206.50 35.65 206.65 34.62Q206.80 33.60 206.80 32.60Q206.80 31.00 205.90 30.05Q205 29.10 203.35 29.10Q200.35 29.10 197.35 32.30Q194.35 35.50 191.80 42.62Q189.25 49.75 187.80 60.85Q187.45 63.40 186.78 64.40Q186.10 65.40 184.15 65.40ZM261.35 54.10Q262 54.10 262.38 54.72Q262.75 55.35 262.75 56.30Q262.75 57.45 262.40 58.10Q262.05 58.75 261.30 59.25Q258.35 61.20 251.90 65.65Q249.95 76 246.85 81.95Q243.75 87.90 239 87.90Q236.45 87.90 234.85 86.32Q233.25 84.75 233.25 82.20Q233.25 79.85 234.30 77.45Q235.35 75.05 238.22 71.90Q241.10 68.75 246.35 64.70L246.50 63.75Q242.55 65.40 238.75 65.40Q233.15 65.40 228.90 63.22Q224.65 61.05 222.30 57.05Q219.95 53.05 219.95 47.75Q219.95 40.35 222.75 34.67Q225.55 29.00 230.47 25.87Q235.40 22.75 241.50 22.75Q247.35 22.75 250.28 25.47Q253.20 28.20 253.20 32.70Q253.20 35.65 252.13 37.42Q251.05 39.20 249.05 39.20Q247.70 39.20 246.88 38.55Q246.05 37.90 246.05 36.75Q246.05 36.25 246.25 35.05Q246.55 33.65 246.55 32.85Q246.55 30.75 245.28 29.60Q244 28.45 241 28.45Q237.35 28.45 234.22 30.55Q231.10 32.65 229.20 36.82Q227.30 41.00 227.30 46.85Q227.30 52.85 230.57 56.12Q233.85 59.40 240.05 59.40Q243.50 59.40 247.25 57.85L247.95 51.75L242.85 51.75Q241.45 51.75 240.70 51.07Q239.95 50.40 239.95 48.85Q239.95 47.45 240.70 46.65Q241.45 45.85 242.70 45.85L252.05 45.85Q253.15 45.85 253.88 46.57Q254.60 47.30 254.45 48.65Q254.30 50.25 253.45 55.90L252.90 59.70Q256.90 56.70 260.20 54.50Q260.85 54.10 261.35 54.10M239.55 83.05Q240.85 83.05 242.40 80.10Q243.95 77.15 245.30 70.60Q241.50 73.85 239.82 76.47Q238.15 79.10 238.15 81.10Q238.15 83.05 239.55 83.05Z"/>
                     </g>
                     <g transform="translate(0, 72.65)">
                            <path d="M59.85 43.55Q61 43.55 61.53 44.05Q62.05 44.55 62.05 45.35Q62.05 46.65 61.28 47.65Q60.50 48.65 58.85 48.70Q54.90 48.75 51.75 48.10Q48.25 55.55 43.33 60.47Q38.40 65.40 33.60 65.40Q29.20 65.40 27.00 60.72Q24.80 56.05 24.50 48.20Q21.50 56.90 17.73 61.15Q13.95 65.40 9.70 65.40Q4.90 65.40 2.45 59.42Q0 53.45 0 43.35Q0 36.00 1.30 27.20Q1.65 24.70 2.57 23.72Q3.50 22.75 5.50 22.75Q7 22.75 7.82 23.40Q8.65 24.05 8.65 25.80Q8.65 26.15 8.55 27.15Q7.05 37.40 7.05 44.60Q7.05 51.30 8.20 54.95Q9.35 58.60 11.30 58.60Q13.05 58.60 15.53 54.92Q18 51.25 20.45 44.02Q22.90 36.80 24.60 26.80Q25 24.50 26.07 23.62Q27.15 22.75 29.00 22.75Q30.55 22.75 31.28 23.42Q32 24.10 32 25.45Q32 26.25 31.90 26.70Q30.50 34.85 30.50 43.00Q30.50 48.55 30.88 51.85Q31.25 55.15 32.33 56.87Q33.40 58.60 35.45 58.60Q37.85 58.60 40.80 54.97Q43.75 51.35 46.20 45.95Q43.15 44.05 41.60 41.02Q40.05 38.00 40.05 34.05Q40.05 30.10 41.28 27.37Q42.50 24.65 44.63 23.30Q46.75 21.95 49.35 21.95Q52.55 21.95 54.42 24.25Q56.30 26.55 56.30 30.55Q56.30 36.20 53.85 43.10Q56.40 43.55 59.85 43.55M45.10 33.70Q45.10 38.60 48.25 40.95Q50.20 35.35 50.20 31.70Q50.20 29.60 49.65 28.62Q49.10 27.65 48.15 27.65Q46.80 27.65 45.95 29.22Q45.10 30.80 45.10 33.70ZM69.80 65.40Q66.35 65.40 63.57 63.70Q60.80 62.00 59.20 58.77Q57.60 55.55 57.60 51.15Q57.60 43.55 60.85 37.07Q64.10 30.60 70.45 26.67Q76.80 22.75 85.70 22.75Q88 22.75 90.63 23.10Q93.25 23.45 95.40 24.15Q96.80 24.55 96.80 26.15Q96.80 27.45 95.83 28.60Q94.85 29.75 93.55 29.75Q93.15 29.75 92.95 29.70Q90.35 29.10 88.50 28.82Q86.65 28.55 84.60 28.55Q78.25 28.55 73.80 31.62Q69.35 34.70 67.15 39.75Q64.95 44.80 64.95 50.65Q64.95 54.90 66.63 57.22Q68.30 59.55 71 59.55Q74.05 59.55 76.35 57.05Q78.65 54.55 80.55 48.95Q82.45 43.35 84.30 33.75Q84.60 32.35 85.50 31.85Q86.40 31.35 87.90 31.35Q91.45 31.35 91.45 33.65Q91.45 34.05 91.30 34.65Q90 39.50 88.92 45.37Q87.85 51.25 87.85 54.30Q87.85 57.00 88.65 58.22Q89.45 59.45 91.10 59.45Q92.70 59.45 94.15 58.37Q95.60 57.30 97.80 54.70Q98.40 54.00 99.15 54.00Q99.80 54.00 100.17 54.60Q100.55 55.20 100.55 56.25Q100.55 58.20 99.60 59.35Q97.15 62.30 94.80 63.85Q92.45 65.40 89.05 65.40Q85.55 65.40 83.40 63.37Q81.25 61.35 80.70 57.65Q77 65.40 69.80 65.40ZM137.30 43.55Q138.45 43.55 138.97 44.05Q139.50 44.55 139.50 45.35Q139.50 46.65 138.72 47.65Q137.95 48.65 136.30 48.70Q132.30 48.80 129.20 48.10Q125.65 55.55 120.63 60.47Q115.60 65.40 110.55 65.40Q105.35 65.40 102.80 59.35Q100.25 53.30 100.25 43.00Q100.25 34.20 101.50 27.20Q101.95 24.60 102.77 23.67Q103.60 22.75 105.60 22.75Q108.90 22.75 108.90 25.60Q108.90 25.90 108.80 26.70Q107.30 35.70 107.30 43.00Q107.30 50.65 108.57 54.62Q109.85 58.60 112.40 58.60Q115 58.60 118.05 55.00Q121.10 51.40 123.65 45.95Q120.60 44.05 119.05 41.02Q117.50 38.00 117.50 34.05Q117.50 30.10 118.72 27.37Q119.95 24.65 122.07 23.30Q124.20 21.95 126.80 21.95Q130 21.95 131.88 24.25Q133.75 26.55 133.75 30.55Q133.75 36.30 131.25 43.10Q133.90 43.55 137.30 43.55M122.55 33.70Q122.55 38.60 125.70 40.95Q127.65 35.35 127.65 31.70Q127.65 29.60 127.10 28.62Q126.55 27.65 125.60 27.65Q124.25 27.65 123.40 29.22Q122.55 30.80 122.55 33.70ZM170 56.05Q170.75 55.75 171.25 55.75Q172.05 55.75 172.45 56.35Q172.85 56.95 172.85 57.90Q172.85 59.40 172.13 60.45Q171.40 61.50 169.65 62.35Q166.70 63.75 162 64.57Q157.30 65.40 152.75 65.40Q146.45 65.40 142.20 63.97Q137.95 62.55 135.88 60.05Q133.80 57.55 133.80 54.40Q133.80 50.10 136.57 47.07Q139.35 44.05 144.75 42.70Q141.80 41.85 140.22 39.70Q138.65 37.55 138.65 34.90Q138.65 31.30 140.93 28.52Q143.20 25.75 147.05 24.25Q150.90 22.75 155.50 22.75Q161.70 22.75 164.80 25.42Q167.90 28.10 167.90 32.35Q167.90 35.30 166.82 37.12Q165.75 38.95 163.75 38.95Q162.35 38.95 161.55 38.32Q160.75 37.70 160.75 36.45Q160.75 35.60 161 34.60Q161.25 32.95 161.25 32.35Q161.25 30.55 159.90 29.42Q158.55 28.30 155.40 28.30Q151.15 28.30 148.60 30.10Q146.05 31.90 146.05 34.95Q146.05 37.30 147.97 38.82Q149.90 40.35 154.25 40.50Q155.35 40.55 155.80 41.00Q156.25 41.45 156.25 42.50Q156.25 45.80 153.25 45.85Q149.10 45.95 146.38 47.00Q143.65 48.05 142.43 49.67Q141.20 51.30 141.20 53.15Q141.20 56.25 144.10 57.82Q147 59.40 153.30 59.40Q157.45 59.40 162.07 58.42Q166.70 57.45 170 56.05ZM182.90 65.55Q176.25 65.55 172.25 63.02Q168.25 60.50 168.25 55.30Q168.25 52.55 169.20 51.10Q170.15 49.65 172 49.65Q173.35 49.65 174.20 50.35Q175.05 51.05 175.05 52.15Q175.05 53.15 174.90 53.90Q174.90 54.10 174.83 54.60Q174.75 55.10 174.75 55.65Q174.75 57.90 177.03 59.00Q179.30 60.10 183.40 60.10Q187.65 60.10 190.05 58.57Q192.45 57.05 192.45 54.30Q192.45 52.60 191.35 51.37Q190.25 50.15 188.60 49.32Q186.95 48.50 183.95 47.30Q180.10 45.80 177.68 44.45Q175.25 43.10 173.53 40.77Q171.80 38.45 171.80 35.00Q171.80 31.40 173.73 28.60Q175.65 25.80 179.28 24.25Q182.90 22.70 187.80 22.70Q191.45 22.70 194.50 23.77Q197.55 24.85 199.38 27.05Q201.20 29.25 201.20 32.45Q201.20 35.60 200.25 37.20Q199.30 38.80 197.45 38.80Q196.15 38.80 195.28 38.00Q194.40 37.20 194.40 36.10Q194.40 35.15 194.55 34.35Q194.70 32.85 194.70 32.45Q194.70 30.35 192.65 29.25Q190.60 28.15 187.55 28.15Q183.25 28.15 180.98 29.72Q178.70 31.30 178.70 34.15Q178.70 36.05 179.88 37.40Q181.05 38.75 182.80 39.65Q184.55 40.55 187.70 41.80Q191.50 43.35 193.80 44.60Q196.10 45.85 197.73 48.00Q199.35 50.15 199.35 53.30Q199.35 59.20 194.88 62.37Q190.40 65.55 182.90 65.55Z"/>
                     </g>
              </g>
       </g>
</svg>